<svg xmlns="http://www.w3.org/2000/svg" viewBox="0 0 96 96" role="img" aria-labelledby="title desc">
  <title id="title">Conube Report</title>
  <desc id="desc">Icone do relatorio operacional da Conube na RPA4ALL.</desc>
  <defs>
    <linearGradient id="bg" x1="0%" y1="0%" x2="100%" y2="100%">
      <stop offset="0%" stop-color="#12c2a1" />
      <stop offset="100%" stop-color="#2f7bf6" />
    </linearGradient>
  </defs>
  <rect width="96" height="96" rx="22" fill="#07131f" />
  <rect x="10" y="10" width="76" height="76" rx="18" fill="url(#bg)" opacity="0.18" />
  <path d="M27 22h28l14 14v38c0 4.4-3.6 8-8 8H27c-4.4 0-8-3.6-8-8V30c0-4.4 3.6-8 8-8Z" fill="#0c1a28" stroke="#8ed8ff" stroke-width="2.5"/>
  <path d="M55 22v12c0 4.4 3.6 8 8 8h12" fill="none" stroke="#8ed8ff" stroke-width="2.5"/>
  <path d="M31 59l10-12 8 8 15-19" fill="none" stroke="#2de2b5" stroke-width="5" stroke-linecap="round" stroke-linejoin="round"/>
  <circle cx="31" cy="59" r="3.5" fill="#f6c34a"/>
  <circle cx="41" cy="47" r="3.5" fill="#f6c34a"/>
  <circle cx="49" cy="55" r="3.5" fill="#f6c34a"/>
  <circle cx="64" cy="36" r="3.5" fill="#f6c34a"/>
</svg>
