<svg viewBox="0 0 1200 200" xmlns="http://www.w3.org/2000/svg">
  <defs>
    <linearGradient id="bg" x1="0%" y1="0%" x2="100%" y2="100%">
      <stop offset="0%" stop-color="#0d47a1"/>
      <stop offset="50%" stop-color="#1565c0"/>
      <stop offset="100%" stop-color="#1976d2"/>
    </linearGradient>
  </defs>
  <rect width="1200" height="200" fill="url(#bg)"/>
  <g transform="translate(80,30)">
    <polygon points="70.0,10.0 83.6,28.2 105.3,21.5 105.6,44.1 127.1,51.5 114.0,70.0 127.1,88.5 105.6,95.9 105.3,118.5 83.6,111.8 70.0,130.0 56.4,111.8 34.7,118.5 34.4,95.9 12.9,88.5 26.0,70.0 12.9,51.5 34.4,44.1 34.7,21.5 56.4,28.2" fill="rgba(255,255,255,0.9)"/>
  <circle cx="70" cy="70" r="28" fill="rgba(255,255,255,0.15)"/>
  <circle cx="70" cy="70" r="10" fill="rgba(255,255,255,0.5)"/>
  </g>
  <text x="280" y="105" font-family="Arial, Helvetica, sans-serif" font-weight="bold"
        font-size="56" fill="#ffffff">RPA4All Wiki</text>
  <text x="280" y="145" font-family="Arial, Helvetica, sans-serif"
        font-size="22" fill="rgba(255,255,255,0.75)">Documentação e Base de Conhecimento</text>
  <line x1="280" y1="115" x2="850" y2="115" stroke="rgba(255,255,255,0.3)" stroke-width="1"/>
</svg>